<svg width="106" height="118" viewBox="0 0 106 118" fill="none" xmlns="http://www.w3.org/2000/svg">
<g clip-path="url(#clip0_23_16)">
<path fill-rule="evenodd" clip-rule="evenodd" d="M104.652 29.4998C103.82 28.0743 102.672 26.8294 101.41 26.1084L57.5899 1.08148C55.0656 -0.360494 50.9344 -0.360494 48.4101 1.08148L4.58987 26.1084C2.06527 27.55 0 31.0892 0 33.9728V84.0269C0 85.4689 0.51649 87.0746 1.34856 88.4998C2.18027 89.925 3.32793 91.1706 4.58989 91.8913L48.4101 116.918C50.9344 118.36 55.0656 118.36 57.5899 116.918L101.41 91.8913C102.672 91.1703 103.82 89.9254 104.651 88.4998C105.483 87.0747 106 85.4689 106 84.0269V33.9728C106 32.5308 105.484 30.925 104.652 29.4998ZM53 93.9528C33.5172 93.9528 17.6667 78.273 17.6667 59C17.6667 39.7269 33.5172 24.0472 53 24.0472C65.5718 24.0472 77.2965 30.7396 83.5983 41.5126L68.307 50.2659C65.153 44.8736 59.2873 41.5236 53 41.5236C43.2584 41.5236 35.3334 49.3633 35.3334 59C35.3334 68.6363 43.2584 76.4764 53 76.4764C59.288 76.4764 65.1536 73.1264 68.308 67.733L83.5994 76.486C77.2976 87.26 65.5724 93.9528 53 93.9528ZM88.3333 57.0581H84.4072V53.1745H80.4817V57.0581H76.5555V60.9416H80.4817V64.8255H84.4072V60.9416H88.3333V57.0581ZM103.056 57.0581H99.1294V53.1745H95.2039V57.0581H91.2778V60.9416H95.2039V64.8255H99.1294V60.9416H103.056V57.0581Z" fill="white"/>
</g>
<defs>
<clipPath id="clip0_23_16">
<rect width="106" height="118" fill="white"/>
</clipPath>
</defs>
</svg>
