<svg width="757" height="597" viewBox="0 0 757 597" fill="none" xmlns="http://www.w3.org/2000/svg">
<g clip-path="url(#clip0_24_2)">
<path d="M743.96 245.25C725.42 232.77 676.7 227.44 641.28 236.98C639.37 201.7 621.18 171.97 587.9 146.03L575.58 137.76L567.37 150.16C551.23 174.66 544.43 207.3 546.84 236.97C548.74 255.25 555.1 275.8 567.37 290.71C521.27 317.45 478.78 311.38 290.6 311.38H0.0600085C-0.789992 353.87 6.04001 435.61 58.02 502.15C63.76 509.5 70.06 516.61 76.89 523.46C119.15 565.78 183 596.81 278.48 596.9C424.14 597.03 548.94 518.3 624.85 327.93C649.83 328.34 715.77 332.41 748.04 270.05C748.83 269 756.25 253.51 756.25 253.51L743.95 245.24L743.96 245.25ZM189.67 206.39H107.97V288.09H189.67V206.39ZM295.22 206.39H213.52V288.09H295.22V206.39ZM400.77 206.39H319.07V288.09H400.77V206.39ZM506.32 206.39H424.62V288.09H506.32V206.39ZM84.12 206.39H2.42001V288.09H84.12V206.39ZM189.67 103.2H107.97V184.9H189.67V103.2ZM295.22 103.2H213.52V184.9H295.22V103.2ZM400.77 103.2H319.07V184.9H400.77V103.2ZM400.77 0H319.07V81.7H400.77V0Z" fill="white"/>
</g>
<defs>
<clipPath id="clip0_24_2">
<rect width="756.26" height="596.9" fill="white"/>
</clipPath>
</defs>
</svg>
