<svg width="94" height="95" viewBox="0 0 94 95" fill="none" xmlns="http://www.w3.org/2000/svg">
<g clip-path="url(#clip0_16_7)">
<path d="M83.9286 0.6875H10.0714C4.51116 0.6875 0 5.18066 0 10.7188V84.2812C0 89.8193 4.51116 94.3125 10.0714 94.3125H83.9286C89.4888 94.3125 94 89.8193 94 84.2812V10.7188C94 5.18066 89.4888 0.6875 83.9286 0.6875ZM51.1545 73.7066C51.1545 82.8184 45.783 86.9771 37.9567 86.9771C30.8857 86.9771 26.7942 83.3408 24.696 78.9312L31.8929 74.6053C33.2777 77.0504 34.5366 79.1193 37.579 79.1193C40.4746 79.1193 42.321 77.9908 42.321 73.5812V43.6756H51.1545V73.7066ZM72.0527 86.9771C63.8487 86.9771 58.5402 83.09 55.9594 77.9908L63.1563 73.8529C65.0446 76.925 67.5205 79.2029 71.8638 79.2029C75.5147 79.2029 77.8647 77.3848 77.8647 74.8561C77.8647 71.8467 75.4728 70.7809 71.4232 69.0045L69.2201 68.0641C62.8415 65.3682 58.6241 61.9617 58.6241 54.7936C58.6241 48.1896 63.6808 43.174 71.5491 43.174C77.1723 43.174 81.2009 45.1176 84.0964 50.2168L77.2143 54.6055C75.7036 51.9096 74.067 50.8438 71.5281 50.8438C68.9473 50.8438 67.3107 52.4738 67.3107 54.6055C67.3107 57.2387 68.9473 58.3045 72.7451 59.9555L74.9482 60.8959C82.4598 64.0934 86.6772 67.3744 86.6772 74.7307C86.6772 82.6303 80.4246 86.9771 72.0527 86.9771Z" fill="white"/>
</g>
<defs>
<clipPath id="clip0_16_7">
<rect width="94" height="95" fill="white"/>
</clipPath>
</defs>
</svg>
