<svg width="50" height="51" viewBox="0 0 50 51" fill="none" xmlns="http://www.w3.org/2000/svg">
<g clip-path="url(#clip0_18_11)">
<path d="M27.071 23.101V23.024C27.055 23.05 27.038 23.076 27.021 23.101H27.071Z" fill="white"/>
<path d="M46.265 0.666992H4.14502C2.12902 0.666992 0.494019 2.26299 0.494019 4.22999V46.843C0.494019 48.809 2.12902 50.405 4.14502 50.405H46.265C48.284 50.405 49.919 48.808 49.919 46.843V4.22999C49.919 2.26199 48.283 0.666992 46.265 0.666992ZM15.475 42.304H8.01002V19.845H15.475V42.304ZM11.743 16.777H11.693C9.18902 16.777 7.56902 15.052 7.56902 12.897C7.56902 10.694 9.23902 9.01699 11.792 9.01699C14.346 9.01699 15.917 10.694 15.967 12.897C15.967 15.052 14.345 16.777 11.743 16.777ZM42.394 42.304H34.929V30.286C34.929 27.268 33.849 25.208 31.148 25.208C29.086 25.208 27.858 26.597 27.317 27.939C27.12 28.418 27.072 29.088 27.072 29.76V42.303H19.607C19.607 42.303 19.705 21.949 19.607 19.844H27.072V23.023C28.064 21.493 29.838 19.314 33.801 19.314C38.712 19.314 42.395 22.525 42.395 29.424L42.394 42.304Z" fill="white"/>
</g>
<defs>
<clipPath id="clip0_18_11">
<rect width="50" height="51" fill="white"/>
</clipPath>
</defs>
</svg>
