<svg width="99" height="120" viewBox="0 0 99 120" fill="none" xmlns="http://www.w3.org/2000/svg">
    <path d="M23.9027 4.99998L86.9027 89.4918M86.9027 89.4918L90.4027 93.8729C95.4027 101.492 94.5482 114.492 81.1466 114.492C81.1466 114.492 77.4269 114.564 74.4027 114.61M86.9027 89.4918L6.90271 89.4918L6.90271 106.432C6.90271 111.492 11.6304 114.492 15.8195 114.492C15.8195 114.492 51.9027 114.492 74.4027 114.61M74.4027 114.61C52.405 84.8359 18.8014 40.4053 10.958 30.0429M10.958 30.0429C9.87284 28.6092 9.28077 27.8278 9.28077 27.8278C-0.0972891 15.5 7.40271 5.49998 17.6588 4.99998L82.9859 4.99998C87.175 4.99998 91.4027 7.59882 91.4027 13.5513L91.4027 29.9918L10.958 30.0429Z" stroke="url(#paint0_linear_7_20)" stroke-width="13"/>
    <defs>
    <linearGradient id="paint0_linear_7_20" x1="97.7039" y1="1.0855" x2="1.09954" y2="119.174" gradientUnits="userSpaceOnUse">
    <stop stop-color="#8D001C"/>
    <stop offset="1" stop-color="#DD0060"/>
    </linearGradient>
    </defs>
</svg>
